<svg id="Layer_1" data-name="Layer 1" xmlns="http://www.w3.org/2000/svg" viewBox="0 0 160.87 82.2"><defs><style>.cls-1{fill:#fff;}</style></defs><title>Header-SELSEA-LOGO-full</title><path d="M122.05,37.14c.44-.88-.59-1.92-1.2-2.74A47,47,0,0,0,115,28a64.56,64.56,0,0,0-9.29-7.2c-5.87-3.75-12-7.29-19.47-9.35a13.25,13.25,0,0,1-3.21-1c-.87-.7-.77-3.85-1.67-4.52-2,.72-4.07,1.69-6,2.56a9.39,9.39,0,0,1-2,.84A14.2,14.2,0,0,1,71,9.16c-.87-.06-1.8,0-2.62,0A54.8,54.8,0,0,0,55.08,11.3a8.43,8.43,0,0,1-1.54-2C53,8.59,52.5,7.92,52,7.19A40.21,40.21,0,0,0,48.77,2.9l-.16-.15-.28.37a18.8,18.8,0,0,1-1.94,2.23C42.19,10.16,38.11,15,34,19.75a25.5,25.5,0,0,1-2.08,2.38c-.42.38-3.49,2.86-3.93,3.24a50.25,50.25,0,0,0-6.72,6.72A104.76,104.76,0,0,0,7,54.58,73.42,73.42,0,0,0,2.39,66.71a4.75,4.75,0,0,1-.65,1.79,1.29,1.29,0,0,0-.14.55,1.42,1.42,0,0,0,.14.69A2.52,2.52,0,0,0,3.29,71,7.21,7.21,0,0,0,5,70.89c1.51-.17,3.15-.4,4.7-.53,2.25-.19,4.42-.81,6.19-.6-.54.82-2.38.31-3.15.72-.28.14-.51.76-.72,1.12-.7,1.27-1.39,2.48-2,3.57A2.16,2.16,0,0,0,7.39,78a2.59,2.59,0,0,0,1.17,1.24l.09,0,.35,0a2.83,2.83,0,0,0,.78,0,9.08,9.08,0,0,0,2.62-1.91c2.54-2.16,5.13-4.21,7.5-6.26,2.83-2.44,5.8-4.77,8.76-7.2a6.17,6.17,0,0,1,1.31-1,13,13,0,0,1,2-.19c2.24-.26,3.91-.18,5.89-.59A7.23,7.23,0,0,0,37,57c3.85-3.29,7.83-6.64,11.91-9.95.55-.45,1.2-1.24,1.72-1.43a10.54,10.54,0,0,1,1.73-.17c3-.37,5.75-.7,8.57-.9,1.14-.08,2.87-.13,3.15-.78s-.25-1.66-.6-2.25a9.17,9.17,0,0,0-1.25-1.79c-.47-.47-1.24-.7-1.61-1.13.74-1.23,1.76-1.66,2.73-2.45L64.78,35c.48-.39,1.07-1.2,1.55-1.26,1.51-.16,3.32-.06,5.18-.06,1.49,0,4.23.34,5-.23.4-.3.38-1,.47-1.72.2-1.41.3-2.41.42-3.64a7.32,7.32,0,0,1,.23-1.78c.24-.54,1.83-1.27,2.56-1.61A29.25,29.25,0,0,1,93.95,22a4.35,4.35,0,0,1-.59,1.84C92.11,27,90.93,30,89.72,33.08a23.43,23.43,0,0,0-1.43,3.75,3.43,3.43,0,0,0,1.84.3c.68,0,1.42,0,2.14,0,8.69,0,17,.24,25.66.24.74,0,3.86.24,4.11-.23M81.51,9.28a10.46,10.46,0,0,1-2.2.78c.1-.27.54-.21.65-.48.59,0,1.16-.88,1.54-.3m-1.07,5.24a.52.52,0,0,1-.18-1c.85-.28.77,1,.18,1m-2.8-5.41a1.45,1.45,0,0,0,.18-.24c1.08-.22,2.11-1.35,3.22-1.2-.12.49-.84.38-1.13.71-.63.07-.93.46-1.55.53a.31.31,0,0,0-.18.19h-.36a.61.61,0,0,1-.66.24c0-.25.22-.26.48-.23m1.14,1.06s.28-.14.3,0-.39.18-.3,0m-2-.78H77c.06.24-.36.24-.3,0m-2.32,2.86a.45.45,0,0,1,.6.42c.09.78-1.07.91-1.07.12a.49.49,0,0,1,.48-.53m-2.85,2.62c0,.4-.21.44-.48.65-1.5-.37.39-1.92.48-.65m-5.24-2.44c.89-.32.83,1,.24,1.07-.35,0-1-.8-.24-1.07m-3.81,2.73c.82-.22.72,1.07.12,1.07a.55.55,0,0,1-.12-1.07m-4.05-.83a.75.75,0,0,1-.12,1c-1.17.28-.87-1.48.12-1m-3.39,3.27c.68-.16.75,1,.18,1.08s-.89-.9-.18-1.08m-3-7.91a2.08,2.08,0,0,1-1,1.19c-.28.59-.86.88-1.19,1.42a6.61,6.61,0,0,1,1.26-1.79c.26-.31.51-.74.89-.83M49.84,18a.56.56,0,0,1-.18-1.08c.83-.28.86,1,.18,1.08m1-10.12c-.05.5-.52.83-.84,1.19a37.11,37.11,0,0,1-3,3.34c0,.28-.32.34-.42.59,0-.53.5-.91.84-1.31,1-1.22,2.09-2.67,3.15-3.87.09,0,.31-.07.3.06M48.36,21.36a.55.55,0,0,1-1,.3c-.24-1.15,1-1,1-.3M44.66,11.3c1-1.28,2.14-2.65,3.22-4A9.17,9.17,0,0,1,49.3,5.59c.17,0,.15.08.3.05a4.68,4.68,0,0,1-1.24,1.73C47,9,45.65,10.57,44.25,12.14c-.05-.3.24-.61.41-.84m.77,14.17c-1,0-.35-1.75.48-.84.05.55-.11.82-.48.84M41.92,21c0,.36-.29.6-.84.54-.89-.89.79-1.49.84-.54m-1.79,3.75c.44-.13.61.11.65.36.28,1.45-2.05.05-.65-.36m-5.41.41c.07.55-.14.82-.48.83-1,0-.39-1.76.48-.83m-1.31,4.4c.79-.18.74,1.06.11,1.08s-.86-.91-.11-1.08M28,36.18a.54.54,0,1,1-1.07.07.51.51,0,0,1,.42-.54.56.56,0,0,1,.65.47m-.18-5.23a.61.61,0,0,1-1,.42c-.42-1.18,1-1.11,1-.42m-5.59,5.71c.32.42.15,1-.3,1-.79,0-.76-1.36.3-1m-4.05,6.68c1,.76-.7,1.58-.77.59,0-.38.25-.64.77-.59M11.8,62.86c-.4,0-.45-.53-.65-.83a4.11,4.11,0,0,0-1-1c1-.59,2.13.7,1.61,1.78M9.3,61.72a.11.11,0,0,1,.12.06,10.3,10.3,0,0,0,1.42,1.85A1.36,1.36,0,0,1,9.3,61.72m4.53,5.47a15.81,15.81,0,0,0-7.5,1.14,15.81,15.81,0,0,1-2.56,1.07c0-.47.6-.75,1-1a13.42,13.42,0,0,1,8-2,8.14,8.14,0,0,1,2.08.53c.45.16,1.14.35,1.25.83a17.57,17.57,0,0,1-2.32-.54m10.06-4c-.44-.29-.27-.82-.36-1.19a4.63,4.63,0,0,0-1-2c-.83-.9-2.45-1.23-3.15-2.15C18,56.07,19,52.7,17,51.07c-.22-.18-.56-.19-.77-.54a2.23,2.23,0,0,1-.72-.06v-.11c.46-.34,1.61.38,2,.76a5.34,5.34,0,0,1,1.61,3.34,10.9,10.9,0,0,0,.24,2.27c.52,1.42,2.06,1.53,3.22,2.61a4.87,4.87,0,0,1,1.36,3c0,.19.27.56-.05.77m8.4-1.53v-.15h.46c.07.28-.3.1-.46.15m.17-3c.24-.27.77-.09,1.07-.12a1.57,1.57,0,0,1-1.07.12m1.07,2.79c.48-.42,1.48-.23,2.26-.3.34,0,.61-.26.89-.06-.43.74-2.16.18-3.15.35m-.3-1.55c.47-.32,1.21-.15,1.85-.24s1.26-.49,1.6,0a9.32,9.32,0,0,1-3.45.24m2.08-1.43a5,5,0,0,1-1.54-.06,6.85,6.85,0,0,1,3-.35,2.8,2.8,0,0,1-1.43.41m26.08-17c.23,0,.64-.17.89.17a6.2,6.2,0,0,1-2.92.65c-2,.23-4.19.31-6.13.54a5.26,5.26,0,0,1-2,.18c.24-.28,1.09-.21,1.43-.18,2.51-.68,6.12-.88,8.75-1.37m-7.74-1.07c1.8,0,4.1-.77,6-.83.2,0,.47-.2.6.12-.7.58-1.91.33-3,.53-.45.09-1.32,0-1.91.12s-1.22.48-1.72.06m20.71-9a36,36,0,0,1-4.88-.06c1.3-.23,3.06-.32,4.46-.42a3.54,3.54,0,0,1,2,.12c-.18.59-1.06.36-1.61.36M70.5,29.34c1.39-.12,3.35-.44,5.24-.48.32,0,.76-.19.77.3a51.61,51.61,0,0,1-6,.18m23.76,1.9v.48c-.55,1.29-.61,3.49-1.37,4.35-.13-1.49.9-3.23,1.13-4.82.08-.1.17-.19.24-.3a1.84,1.84,0,0,1,.05-.66h.18a1.24,1.24,0,0,1-.24,1m.29-1.2-.08-.72c.1,0,.22.08.3.08,0,.21,0,.6-.22.64m2.68,4.11c-.09.67-.11,1.53-.6,2-.37-.51,0-1.25.06-1.84.28-1.68.6-3.74,1-5.24,0-.49,0-1,.18-1.31a55.24,55.24,0,0,1-.65,6.43m.89-6.78c-.53-.14,0-.38-.07-.66.17.16.1.45.07.66m-.77-9.53a60.06,60.06,0,0,0-23.75-.72,65.64,65.64,0,0,0-20.9,7.5c-12,7-22,15.83-29.35,27.44a11,11,0,0,1,2.2,7.44c0,.59,0,1.29-.48,1.6-.43-.31-.09-1-.06-1.37a8.85,8.85,0,0,0-2.63-7,7.1,7.1,0,0,0-5.11-2.86c.38-.64,1.62-.26,2.32-.07a12.6,12.6,0,0,0,1.31.48,16.44,16.44,0,0,0,1.54,1C28.18,42.16,36,34.54,45.07,28.15A72.68,72.68,0,0,1,59.9,20.05a61.85,61.85,0,0,1,20.71-4.47A53.64,53.64,0,0,1,97,17.26a2.85,2.85,0,0,1,1.67.83c-.44.17-.89-.12-1.31-.23M100,36.18a43.3,43.3,0,0,1,.06-7,.18.18,0,0,1,.12.12c.09,1.52,0,3.28.05,4.88,0,.7.3,1.54-.24,2m4.05.07a2.45,2.45,0,0,1-.42-1.55,35.83,35.83,0,0,1-.42-4.7c.05,0,.11,0,.12.12.15,1.56.51,3,.77,4.64.08.49.24,1.1-.05,1.49m2-12.65.1-.07c.36,0,.42.75.14.76S106.09,23.6,106.09,23.6Zm.24,6.88-.17-.07c0-.22-.15-.33,0-.48l.15,0c.15.15,0,.38,0,.6m1.49,4.58c-.27-.82-.62-1.8-.95-2.56v-.36c-.11-.1-.13-.27-.24-.36v-.35c0-.21-.22-.23-.24-.42s0-.34.06-.42.18.34.18.6.24.16.29.3c.39,1.72,1.39,3.13,1.61,4.82-.56,0-.56-.77-.72-1.25m3.75-.84c-.27-.48-.54-1-.83-1.48a6.54,6.54,0,0,1-.89-1.67c-.15-.22-.52-.55-.42-.83.19,0,.19.13.18.29a37.58,37.58,0,0,1,2.32,3.63c.45.72,1.18,1.42,1.13,2.33a6.18,6.18,0,0,1-1.49-2.26m4.58.54c-1.28-1.68-2.68-3.49-4-5.18-.07,0-.05-.1-.07-.17h.18c1.42,1.63,2.77,3.4,4.23,5.06.45.51,1.14,1,1.19,1.72-.64-.07-1.15-.9-1.55-1.43"/><path class="cls-1" d="M46,24.62h0c-.33-.37-.61-.3-.74-.22a.75.75,0,0,0-.33.8.49.49,0,0,0,.52.35h0a.52.52,0,0,0,.38-.17,1,1,0,0,0,.14-.73Z"/><path class="cls-1" d="M41.58,20.49a.71.71,0,0,0-.74.31c-.08.14-.15.42.21.79h.21a.79.79,0,0,0,.55-.18A.54.54,0,0,0,42,21,.51.51,0,0,0,41.58,20.49Z"/><path class="cls-1" d="M49.59,5.59a.1.1,0,0,1-.09,0,.21.21,0,0,0-.21,0h0a4.61,4.61,0,0,0-1,1.12c-.14.2-.29.41-.46.62L46.72,8.65c-.71.87-1.45,1.77-2.1,2.62l-.08.11a1.08,1.08,0,0,0-.34.77l0,.11.07-.08c1.28-1.44,2.63-3,4.11-4.77.11-.14.24-.27.37-.41a3.09,3.09,0,0,0,.89-1.35l0-.08Z"/><path class="cls-1" d="M48.06,20.85a.58.58,0,0,0-.6,0c-.11.09-.27.3-.17.78v0a.59.59,0,0,0,.49.28l.18,0a.61.61,0,0,0,.45-.58A.58.58,0,0,0,48.06,20.85Z"/><path class="cls-1" d="M40.84,25.1a.53.53,0,0,0-.23-.37.59.59,0,0,0-.49,0c-.5.15-.51.41-.48.55a.91.91,0,0,0,.81.56h.11C40.71,25.77,40.94,25.63,40.84,25.1Z"/><path class="cls-1" d="M27.82,35.78a.63.63,0,0,0-.49-.12.57.57,0,0,0-.46.59.55.55,0,0,0,.29.5.61.61,0,0,0,.29.07.64.64,0,0,0,.35-.1.57.57,0,0,0,.26-.54A.54.54,0,0,0,27.82,35.78Z"/><path class="cls-1" d="M34.77,25.15h0c-.35-.37-.63-.3-.76-.22a.73.73,0,0,0-.31.79.49.49,0,0,0,.52.36h0a.52.52,0,0,0,.39-.18.92.92,0,0,0,.14-.72Z"/><path class="cls-1" d="M18.2,43.29h0a.83.83,0,0,0-.67.18.57.57,0,0,0-.16.47.49.49,0,0,0,.4.5h.1a.74.74,0,0,0,.65-.4C18.56,43.89,18.6,43.6,18.2,43.29Z"/><path class="cls-1" d="M27.49,30.45a.62.62,0,0,0-.66.09c-.11.1-.26.35-.08.84v0a.6.6,0,0,0,.42.17.66.66,0,0,0,.28-.06.64.64,0,0,0,.4-.57A.56.56,0,0,0,27.49,30.45Z"/><path class="cls-1" d="M22.26,36.62h0a.68.68,0,0,0-.78.13.64.64,0,0,0-.08.68.54.54,0,0,0,.5.31h0a.51.51,0,0,0,.45-.31A.78.78,0,0,0,22.26,36.62Z"/><path class="cls-1" d="M50.81,7.76a.24.24,0,0,0-.2,0h-.14l0,0c-.73.83-1.48,1.77-2.2,2.68l-1,1.2-.24.27A1.77,1.77,0,0,0,46.45,13l.1,0a.63.63,0,0,1,.19-.24.62.62,0,0,0,.23-.35,25.62,25.62,0,0,0,2.34-2.53l.69-.8.24-.24a1.73,1.73,0,0,0,.62-1A.11.11,0,0,0,50.81,7.76Z"/><path class="cls-1" d="M33.93,29.67a.5.5,0,0,0-.53-.15.52.52,0,0,0-.46.59.65.65,0,0,0,.57.59h0a.52.52,0,0,0,.46-.33A.7.7,0,0,0,33.93,29.67Z"/><path class="cls-1" d="M80.81,13.55a.51.51,0,0,0-.57-.09.54.54,0,0,0-.39.63.57.57,0,0,0,.55.49h0a.52.52,0,0,0,.45-.35A.66.66,0,0,0,80.81,13.55Z"/><path class="cls-1" d="M81,7.62a3.23,3.23,0,0,0-1.93.62,4.88,4.88,0,0,1-1.31.58h0l-.07.09a.7.7,0,0,1-.09.12.58.58,0,0,0-.43.08.28.28,0,0,0-.08.21v0h.21a.64.64,0,0,0,.52-.25h.37v0A.26.26,0,0,1,78.37,9a2.23,2.23,0,0,0,.78-.27,2.13,2.13,0,0,1,.76-.26h0v0a1,1,0,0,1,.49-.25c.28-.09.57-.18.65-.49V7.63Z"/><path class="cls-1" d="M50.22,16.95a.52.52,0,0,0-.58-.1.57.57,0,0,0-.39.66.61.61,0,0,0,.58.52h0a.54.54,0,0,0,.48-.36A.71.71,0,0,0,50.22,16.95Z"/><path class="cls-1" d="M74.88,12.28a.59.59,0,0,0-.46-.08.54.54,0,0,0-.52.59.56.56,0,0,0,.29.52.61.61,0,0,0,.27.06.65.65,0,0,0,.37-.11.61.61,0,0,0,.25-.6A.54.54,0,0,0,74.88,12.28Z"/><path class="cls-1" d="M81.55,9.25c-.25-.39-.59-.18-.91,0a1.28,1.28,0,0,1-.67.26h0v0c0,.11-.17.16-.3.21a.53.53,0,0,0-.36.27l0,.09.1,0a8.44,8.44,0,0,0,1.45-.51,3.68,3.68,0,0,1,.75-.27h.09Z"/><path class="cls-1" d="M11.48,61.19A1.08,1.08,0,0,0,10.16,61l-.07,0,.06,0a4.06,4.06,0,0,1,.94.94,1.9,1.9,0,0,1,.15.31c.11.26.23.55.53.55h.05v0A1.45,1.45,0,0,0,11.48,61.19Z"/><path class="cls-1" d="M58.51,14.31h0a.61.61,0,0,0-.77.06.67.67,0,0,0-.11.76.54.54,0,0,0,.5.26l.25,0h0a.65.65,0,0,0,.25-.44A.78.78,0,0,0,58.51,14.31Z"/><path class="cls-1" d="M71.19,14.33h0a.8.8,0,0,0-.72.63c0,.17,0,.48.61.62h0l0,0,.16-.11a.57.57,0,0,0,.34-.59C71.59,14.4,71.31,14.34,71.19,14.33Z"/><path class="cls-1" d="M52.09,9.64a1.47,1.47,0,0,0-.75.64l-.17.21-.2.23a5.41,5.41,0,0,0-1.07,1.57l.1,0a3.23,3.23,0,0,1,.55-.63,2.85,2.85,0,0,0,.64-.78l.14-.11a1.86,1.86,0,0,0,.83-1.11l0-.08Z"/><path class="cls-1" d="M63,15.25a.47.47,0,0,0-.54-.13.56.56,0,0,0-.42.64.58.58,0,0,0,.55.53.51.51,0,0,0,.46-.32A.71.71,0,0,0,63,15.25Z"/><path class="cls-1" d="M66.9,12.46a.52.52,0,0,0-.59-.08c-.41.14-.41.41-.38.57a.8.8,0,0,0,.62.61h0a.53.53,0,0,0,.44-.38A.7.7,0,0,0,66.9,12.46Z"/><path class="cls-1" d="M55.54,17.7a.47.47,0,0,0-.48-.14.54.54,0,0,0-.43.66.62.62,0,0,0,.57.53h.06a.48.48,0,0,0,.39-.33A.75.75,0,0,0,55.54,17.7Z"/><path class="cls-1" d="M100.21,29.34a.18.18,0,0,0-.12-.12,43.3,43.3,0,0,0-.06,7c.54-.42.27-1.26.24-2C100.19,32.63,100.3,30.87,100.21,29.34Z"/><path class="cls-1" d="M100,36.28v-.09a28.6,28.6,0,0,1,0-5.27c0-.59.06-1.15.08-1.7v-.08l.07,0a.23.23,0,0,1,.16.16h0c0,.79,0,1.66,0,2.51s0,1.6,0,2.37c0,.15,0,.32,0,.48.07.58.14,1.18-.3,1.52Zm.15-7c0,.52,0,1-.08,1.61a29.44,29.44,0,0,0,0,5.15c.32-.32.25-.85.19-1.36,0-.16,0-.33,0-.49,0-.77,0-1.58,0-2.37s0-1.71,0-2.5Z"/><path class="cls-1" d="M104.21,34.91l0-.16c-.1-.65-.22-1.27-.33-1.86-.18-.94-.35-1.83-.44-2.78h0a.2.2,0,0,0-.12-.14l-.1-.06V30a21.82,21.82,0,0,0,.26,3.4c.06.45.12.88.16,1.31,0,.06,0,.12,0,.19a2.14,2.14,0,0,0,.42,1.4l0,0,0,0A1.77,1.77,0,0,0,104.21,34.91Z"/><path class="cls-1" d="M97,17.26a53.65,53.65,0,0,0-16.37-1.67A61.85,61.85,0,0,0,59.9,20.05a72.68,72.68,0,0,0-14.82,8.09c-9,6.39-16.89,14-22.63,23.16a16.41,16.41,0,0,1-1.54-1,12.63,12.63,0,0,1-1.31-.48c-.7-.19-1.94-.58-2.32.07a7.1,7.1,0,0,1,5.11,2.86,8.85,8.85,0,0,1,2.63,7c0,.42-.37,1.06.06,1.37.46-.32.44-1,.48-1.6a11,11,0,0,0-2.2-7.44C30.66,40.47,40.74,31.61,52.7,24.64a65.64,65.64,0,0,1,20.9-7.5,60.06,60.06,0,0,1,23.75.72c.42.11.86.4,1.31.23A2.85,2.85,0,0,0,97,17.26Z"/><path class="cls-1" d="M97.83,27.7a1.71,1.71,0,0,0-.19,1c0,.1,0,.2,0,.29-.37,1.36-.67,3.17-.93,4.76l-.08.48c0,.14-.06.29-.1.44a1.72,1.72,0,0,0,0,1.44l0,0,0,0a2.59,2.59,0,0,0,.58-1.69l0-.31c.05-.43.11-.86.17-1.3a40.52,40.52,0,0,0,.48-5.13v-.15Z"/><path class="cls-1" d="M117.76,36.18a2.25,2.25,0,0,0-.86-1.4c-.12-.12-.24-.24-.35-.36-.76-.86-1.5-1.77-2.21-2.64s-1.33-1.63-2-2.42v0H112v.07a.23.23,0,0,1,0,.05s0,.14.08.16l.9,1.16c1,1.33,2.09,2.7,3.07,4l.19.26c.37.5.83,1.13,1.4,1.19h.07Z"/><path class="cls-1" d="M108.59,36.3a10,10,0,0,0-.84-2.64,13.14,13.14,0,0,1-.77-2.19.43.43,0,0,0-.17-.18.39.39,0,0,1-.12-.11v-.09c0-.24,0-.51-.23-.55h0l0,0a.54.54,0,0,0-.07.38s0,.05,0,.08a.37.37,0,0,0,.13.23.27.27,0,0,1,.11.18v.38l0,0a.53.53,0,0,1,.1.16.73.73,0,0,0,.12.19v.36c.34.78.7,1.83.94,2.55,0,.11.06.23.09.35.1.43.2.91.68.93h.06Z"/><path class="cls-1" d="M112.34,34.66c-.13-.18-.25-.35-.36-.53-.22-.36-.45-.73-.66-1.09a22.05,22.05,0,0,0-1.65-2.53.37.37,0,0,0-.07-.29.23.23,0,0,0-.18,0h0v0c-.09.25.13.51.3.72l.12.16a4.28,4.28,0,0,0,.63,1.25l.27.42c.19.32.37.66.55,1l.28.5c.1.19.2.38.29.58A4.3,4.3,0,0,0,113,36.53l.08.06v-.1A3,3,0,0,0,112.34,34.66Z"/><path class="cls-1" d="M35.57,59.58a3.58,3.58,0,0,1-.48.11,8.16,8.16,0,0,0-1.68.15,9.24,9.24,0,0,0,3.18-.24C36.35,59.36,36,59.47,35.57,59.58Z"/><path class="cls-1" d="M10.88,63.59a10.36,10.36,0,0,1-1.41-1.83.16.16,0,0,0-.18-.1h0v0a1.48,1.48,0,0,0,.27,1.61,1.31,1.31,0,0,0,1,.43,1.2,1.2,0,0,0,.39-.07l.08,0Z"/><path class="cls-1" d="M33.52,58.46a2.14,2.14,0,0,1-.32,0c-.29,0-.61-.06-.79.15l-.07.08h.1a4.75,4.75,0,0,0,.49,0,1,1,0,0,0,.62-.17l.14-.11Z"/><path class="cls-1" d="M36.13,61.11a1.64,1.64,0,0,1-.33.08h0c-.24,0-.49,0-.75,0a3.22,3.22,0,0,0-1.3.15H34c.25,0,.52,0,.78,0,.75.05,1.52.11,1.8-.29A.56.56,0,0,0,36.13,61.11Z"/><path class="cls-1" d="M24,62.53a.94.94,0,0,1,0-.15,4.91,4.91,0,0,0-1.38-3.07,6.67,6.67,0,0,0-1.45-1,3.19,3.19,0,0,1-1.75-1.63,4.85,4.85,0,0,1-.19-1.43c0-.27,0-.55-.05-.82a5.42,5.42,0,0,0-1.63-3.37c-.39-.37-1.59-1.14-2.09-.77l0,0v.18h0a2.53,2.53,0,0,0,.7.06,1.06,1.06,0,0,0,.5.38,1.06,1.06,0,0,1,.27.15c1.09.89,1.28,2.33,1.46,3.72a6.28,6.28,0,0,0,.91,3.06A4.76,4.76,0,0,0,20.93,59a5.53,5.53,0,0,1,1.54,1,4.59,4.59,0,0,1,1,1.93,1.62,1.62,0,0,1,0,.36.94.94,0,0,0,.35.87l0,0,0,0C24.19,63,24.1,62.72,24,62.53Z"/><path class="cls-1" d="M94.54,30.29v0h-.27v0a1.81,1.81,0,0,0-.06.66l-.17.21-.06.07h0v0a11.83,11.83,0,0,1-.55,2,7.44,7.44,0,0,0-.58,2.83v.12l.08-.09a5.93,5.93,0,0,0,.87-2.48,10.56,10.56,0,0,1,.51-1.88v-.48A1.3,1.3,0,0,0,94.54,30.29Z"/><path class="cls-1" d="M16.2,67.72c-.1-.46-.68-.66-1.14-.82l-.15-.05a8.14,8.14,0,0,0-2.09-.54,13.58,13.58,0,0,0-8.07,2l-.18.12c-.39.24-.83.51-.86.94v.07h.07a5.61,5.61,0,0,0,1.54-.6,10.72,10.72,0,0,1,1-.47,15.83,15.83,0,0,1,7.48-1.14,5.9,5.9,0,0,1,1,.26,4.46,4.46,0,0,0,1.34.28h.07Z"/><path class="cls-1" d="M76.56,29.16a.39.39,0,0,0-.11-.31.65.65,0,0,0-.5-.06l-.21,0c-1.26,0-2.55.18-3.68.31-.56.07-1.1.13-1.56.17v.11c.4,0,.84,0,1.31,0,1.46,0,3.17-.1,4.71-.22h.05Z"/><path class="cls-1" d="M36.75,58a7,7,0,0,0-3,.35v.1a4.47,4.47,0,0,0,.94.09,5.4,5.4,0,0,0,.62,0,2.83,2.83,0,0,0,1.46-.42l.07-.07Z"/><path class="cls-1" d="M76,31a2.68,2.68,0,0,0-1.65-.16l-.41,0-.68,0c-1.26.09-2.69.18-3.79.37v.11a12.55,12.55,0,0,0,1.89.11l1.53,0,1.46,0,.39,0c.53,0,1.12.09,1.28-.42v0Z"/><path class="cls-1" d="M60.31,39.68c-.11-.28-.33-.22-.49-.18l-.16,0a20,20,0,0,0-3,.42,17.57,17.57,0,0,1-3,.41h-.14l.11.09a.86.86,0,0,0,.59.2,2.81,2.81,0,0,0,.76-.14,3.43,3.43,0,0,1,.42-.1,8,8,0,0,1,1-.06,6.09,6.09,0,0,0,.92-.06,7.72,7.72,0,0,1,1.13-.1,3,3,0,0,0,1.87-.44l0,0Z"/><path class="cls-1" d="M62.32,41.63a.78.78,0,0,0-.88-.21h-.06c-1.05.2-2.24.34-3.49.5a41,41,0,0,0-5.25.87c-.79-.08-1.29,0-1.46.2l-.05.06.08,0a1.81,1.81,0,0,0,.5.07,4.43,4.43,0,0,0,.9-.13c.21,0,.43-.09.65-.11,1-.12,2.08-.2,3.12-.28s2-.15,3-.26l.56-.05a4.73,4.73,0,0,0,2.38-.61l0,0Z"/><path d="M74.55,59.55a7.89,7.89,0,0,0-2.16-.78c-.8-.18-1.63-.33-2.48-.47a8.93,8.93,0,0,1-1.54-.38.76.76,0,0,1-.55-.75A.69.69,0,0,1,68,56.7a1.15,1.15,0,0,1,.4-.3,1.91,1.91,0,0,1,.56-.16,4.94,4.94,0,0,1,.62,0,10.34,10.34,0,0,1,1.37.11,5.2,5.2,0,0,1,1.46.43,2.88,2.88,0,0,1,.74.5,4.44,4.44,0,0,1,.42.46l3-2.45c-.28-.29-.57-.56-.9-.84a6.37,6.37,0,0,0-1.35-.84,9.29,9.29,0,0,0-2.11-.71,12.84,12.84,0,0,0-2.49-.23,12,12,0,0,0-2,.17,8.29,8.29,0,0,0-1.8.54,5.53,5.53,0,0,0-1.48.94,4,4,0,0,0-1,1.39,4.34,4.34,0,0,0-.44,1.9,3.8,3.8,0,0,0,.45,1.94,4.26,4.26,0,0,0,1.1,1.26,4.86,4.86,0,0,0,1.36.75c.48.17.89.3,1.23.38l.81.17,1.21.23,1.19.24c.38.08.63.13.75.18a1.74,1.74,0,0,1,.49.24,1.33,1.33,0,0,1,.25.28.75.75,0,0,1,.09.25c0,.07,0,.12,0,.15a.72.72,0,0,1-.31.62,2.49,2.49,0,0,1-.69.33,3.43,3.43,0,0,1-.76.14l-.53,0a6.71,6.71,0,0,1-2.13-.34,4.33,4.33,0,0,1-.83-.34,3.23,3.23,0,0,1-1-.8,5.66,5.66,0,0,1-.32-.47l-3.69,2.31c.17.2.38.44.61.68a7.49,7.49,0,0,0,.85.77,7.9,7.9,0,0,0,1.18.74,8.87,8.87,0,0,0,1.58.62,12,12,0,0,0,1.79.34,15.86,15.86,0,0,0,1.75.09l1,0A8.34,8.34,0,0,0,72,68.12a8.2,8.2,0,0,0,1.71-.56,5,5,0,0,0,1.6-1.1,5.22,5.22,0,0,0,.94-1.34,4.35,4.35,0,0,0,.42-2,3.77,3.77,0,0,0-.59-2.22,4.21,4.21,0,0,0-1.53-1.35"/><polygon points="84.36 61.78 91.11 61.78 91.11 58.57 84.36 58.57 84.36 56.38 91.58 56.38 91.58 53.12 79.52 53.12 79.52 67.93 92.23 67.93 92.23 64.72 84.36 64.72 84.36 61.78"/><polygon points="100.47 53.1 95.64 53.1 95.64 67.93 106.36 67.93 106.36 64.19 100.47 64.19 100.47 53.1"/><path d="M121.54,59.55a8,8,0,0,0-2.16-.78c-.8-.18-1.63-.33-2.48-.47a8.84,8.84,0,0,1-1.54-.38.77.77,0,0,1-.55-.75.75.75,0,0,1,.14-.46,1.23,1.23,0,0,1,.4-.3,1.87,1.87,0,0,1,.56-.16,4.91,4.91,0,0,1,.62,0,10.29,10.29,0,0,1,1.37.11,5.23,5.23,0,0,1,1.46.43,2.87,2.87,0,0,1,.74.5,4.53,4.53,0,0,1,.43.46l3-2.45c-.28-.29-.57-.56-.9-.84a6.4,6.4,0,0,0-1.34-.84,9.45,9.45,0,0,0-2.12-.71,12.7,12.7,0,0,0-2.48-.23,12,12,0,0,0-2,.17,8.26,8.26,0,0,0-1.8.54,5.37,5.37,0,0,0-1.47.94,3.87,3.87,0,0,0-1,1.39,4.34,4.34,0,0,0-.43,1.9,3.84,3.84,0,0,0,.45,1.94,4.31,4.31,0,0,0,1.1,1.26,5,5,0,0,0,1.36.75c.48.17.89.3,1.23.38l.81.17,1.22.23,1.19.24c.38.08.64.13.76.18a1.85,1.85,0,0,1,.49.24,1.11,1.11,0,0,1,.24.28.71.71,0,0,1,.1.25c0,.07,0,.12,0,.15a.72.72,0,0,1-.31.62,2.5,2.5,0,0,1-.68.33,3.59,3.59,0,0,1-.76.14l-.54,0a6.76,6.76,0,0,1-2.14-.34,4.66,4.66,0,0,1-.83-.34,3.08,3.08,0,0,1-.55-.39,3.34,3.34,0,0,1-.41-.42c-.11-.15-.22-.3-.32-.47l-3.69,2.31c.18.2.38.44.62.68a7.72,7.72,0,0,0,.85.77,8,8,0,0,0,1.18.74,9,9,0,0,0,1.59.62,11.73,11.73,0,0,0,1.79.34,15.86,15.86,0,0,0,1.75.09l1,0a8.53,8.53,0,0,0,1.51-.22,8.25,8.25,0,0,0,1.71-.56,5,5,0,0,0,1.61-1.1,5.3,5.3,0,0,0,.94-1.34,4.35,4.35,0,0,0,.42-2,3.77,3.77,0,0,0-.59-2.22,4.25,4.25,0,0,0-1.53-1.35"/><polygon points="131.61 61.78 138.36 61.78 138.36 58.57 131.61 58.57 131.61 56.38 138.83 56.38 138.83 53.12 126.77 53.12 126.77 67.93 139.49 67.93 139.49 64.72 131.61 64.72 131.61 61.78"/><path d="M148,53.12h5.48l5.7,14.81H154l-.67-2.06H148l-.66,2.06H142.2Zm2.74,4.22L149,62.56h3.19Z"/></svg>